<svg width="900" height="242" viewBox="0 0 900 242" fill="none" xmlns="http://www.w3.org/2000/svg">
<path d="M0 172L21.5 185.3C43 198.7 86 225.3 128.8 236C171.7 246.7 214.3 241.3 257.2 229.8C300 218.3 343 200.7 385.8 188.8C428.7 177 471.3 171 514.2 168.2C557 165.3 600 165.7 642.8 170C685.7 174.3 728.3 182.7 771.2 185C814 187.3 857 183.7 878.5 181.8L900 180V0H878.5C857 0 814 0 771.2 0C728.3 0 685.7 0 642.8 0C600 0 557 0 514.2 0C471.3 0 428.7 0 385.8 0C343 0 300 0 257.2 0C214.3 0 171.7 0 128.8 0C86 0 43 0 21.5 0H0V172Z" fill="#FF8D9C"/>
</svg>
