<svg id="visual" viewBox="0 0 675 900" width="675" height="900" xmlns="http://www.w3.org/2000/svg" xmlns:xlink="http://www.w3.org/1999/xlink" version="1.1"><path d="M0 439L28.2 403.7C56.3 368.3 112.7 297.7 169 278.3C225.3 259 281.7 291 337.8 329C394 367 450 411 506.2 427.2C562.3 443.3 618.7 431.7 646.8 425.8L675 420L675 0L646.8 0C618.7 0 562.3 0 506.2 0C450 0 394 0 337.8 0C281.7 0 225.3 0 169 0C112.7 0 56.3 0 28.2 0L0 0Z" fill="#ffb6c1" stroke-linecap="round" stroke-linejoin="miter"></path></svg>